<?xml version="1.0" encoding="UTF-8"?>
<svg id="Layer_2" xmlns="http://www.w3.org/2000/svg" viewBox="0 0 108 62.86">
  <defs>
    <style>
      .cls-1, .cls-2 {
        fill: #fff;
      }

      .cls-3 {
        fill: #77787b;
      }

      .cls-2, .cls-4, .cls-5 {
        fill-rule: evenodd;
      }

      .cls-6 {
        fill: #dcddde;
      }

      .cls-4 {
        fill: #991b1e;
      }

      .cls-5 {
        fill: #d1d3d4;
      }

      .cls-7 {
        fill: #991d20;
      }
    </style>
  </defs>
  <g id="Layer_1-2" data-name="Layer_1">
    <g>
      <path class="cls-5" d="M81.46,51.81c-.35,0-.68.12-.91.35-.26.26-.41.62-.41.97,0,.32.15.68.38.91.26.27.59.44.94.44s.67-.17.94-.44c.26-.23.38-.56.38-.91s-.15-.7-.38-.94c-.24-.26-.59-.38-.94-.38M82.61,53.13c0,.29-.12.59-.32.79-.24.23-.53.35-.82.35s-.59-.15-.79-.35c-.24-.21-.35-.5-.35-.79,0-.32.12-.62.35-.82.21-.23.5-.35.79-.35.32,0,.62.15.82.35.2.21.32.5.32.82M81.49,52.34h-.56v1.5h.29v-.65h.26l.32.65h.29l-.32-.68c.21-.03.35-.21.35-.41,0-.27-.21-.41-.65-.41M81.46,52.51c.23,0,.38.09.38.26s-.12.24-.38.24h-.24v-.5h.24"/>
      <path class="cls-6" d="M54.02,54.68c-.66,0-1.31,0-1.97-.03C23.18,54.13,0,42.07,0,27.33S24.22,0,54,0c0,0,.02,0,.02,0h.1c29.72.03,53.88,12.28,53.88,27.33s-23.11,26.76-51.93,27.31c-.68.02-1.36.03-2.05.03ZM32.52,45.79c5.55,4.62,13.14,7.48,21.49,7.48s15.95-2.85,21.5-7.48h-42.99ZM77.57,45.79c-2.62,2.43-5.75,4.45-9.23,5.94,5.67-1.3,10.77-3.34,14.99-5.94h-5.75ZM24.73,45.79c4.2,2.59,9.28,4.63,14.93,5.93-3.47-1.49-6.58-3.51-9.19-5.93h-5.73ZM17.01,45.79c4.51,2.2,9.83,4.01,15.71,5.29-3.89-1.42-7.41-3.21-10.42-5.29h-5.29ZM85.75,45.79c-2.99,2.07-6.48,3.86-10.35,5.27,5.83-1.29,11.11-3.08,15.59-5.27h-5.25ZM87.59,44.43h6c3.93-2.21,7.1-4.75,9.34-7.52h-8.6c-1.62,2.74-3.91,5.28-6.75,7.52ZM78.95,44.43h6.43c3.1-2.21,5.62-4.75,7.39-7.52h-8.73c-1.23,2.75-2.96,5.28-5.09,7.52ZM30.99,44.43h46.04c2.3-2.21,4.17-4.75,5.5-7.52H25.5c1.33,2.78,3.2,5.31,5.5,7.52ZM22.67,44.43h6.41c-2.13-2.24-3.85-4.78-5.08-7.52h-8.71c1.77,2.77,4.28,5.31,7.39,7.52ZM14.41,44.43h6.05c-2.84-2.25-5.13-4.78-6.75-7.52H5.07c2.24,2.77,5.42,5.31,9.34,7.52ZM95.08,35.54h8.87c1.61-2.37,2.54-4.9,2.68-7.52h-9.58c-.1,2.61-.78,5.14-1.97,7.52ZM84.6,35.54h8.96c1.27-2.37,2.01-4.9,2.12-7.52h-9.53c-.11,2.62-.65,5.14-1.55,7.52ZM24.89,35.54h58.24c.96-2.37,1.53-4.9,1.65-7.52H23.25c.12,2.62.69,5.15,1.65,7.52ZM14.48,35.54h8.95c-.9-2.38-1.44-4.91-1.55-7.52h-9.51c.11,2.62.84,5.15,2.12,7.52ZM4.06,35.54h8.91c-1.18-2.38-1.87-4.91-1.97-7.52H1.38c.14,2.62,1.07,5.15,2.68,7.52ZM97.04,26.66h9.58c-.14-2.62-1.06-5.15-2.67-7.52h-8.88c1.18,2.38,1.86,4.91,1.96,7.52ZM86.17,26.66h9.51c-.11-2.62-.84-5.15-2.12-7.52h-8.72c.83,2.38,1.29,4.9,1.33,7.52ZM23.23,26.66h61.58c-.04-2.63-.53-5.16-1.42-7.52H24.71c-.92,2.38-1.44,4.9-1.48,7.52ZM12.37,26.66h9.49c.04-2.61.52-5.14,1.39-7.52h-8.77c-1.27,2.37-2.01,4.9-2.12,7.52ZM1.38,26.66h9.62c.1-2.61.78-5.14,1.96-7.52H4.05c-1.61,2.37-2.53,4.9-2.67,7.52ZM94.34,17.77h8.61c-2.23-2.77-5.41-5.31-9.33-7.52h-6.03c2.84,2.25,5.13,4.78,6.75,7.52ZM84.31,17.77h8.45c-1.77-2.77-4.28-5.31-7.39-7.52h-5.96c2.08,2.24,3.74,4.77,4.9,7.52ZM25.29,17.77h57.54c-1.25-2.78-3.06-5.32-5.32-7.52H30.74c-2.3,2.21-4.16,4.75-5.45,7.52ZM15.28,17.77h8.51c1.19-2.74,2.9-5.28,5.03-7.52h-6.16c-3.1,2.21-5.62,4.75-7.39,7.52ZM5.06,17.77h8.65c1.62-2.74,3.91-5.28,6.75-7.52h-6.07c-3.92,2.21-7.1,4.75-9.33,7.52ZM85.75,8.88h5.27c-4.51-2.2-9.82-4.01-15.69-5.29,3.9,1.42,7.41,3.21,10.42,5.29ZM78.06,8.88h5.26c-3.93-2.43-8.63-4.37-13.84-5.67,3.25,1.46,6.15,3.39,8.58,5.67ZM32.27,8.88h43.74c-5.54-4.66-13.27-7.51-21.95-7.51s-16.21,2.87-21.8,7.51ZM24.73,8.88h5.48c2.55-2.35,5.59-4.33,8.98-5.82-5.46,1.3-10.37,3.3-14.46,5.82ZM16.99,8.88h5.31c3.03-2.1,6.57-3.9,10.49-5.32-5.92,1.29-11.27,3.1-15.81,5.32Z"/>
      <path class="cls-2" d="M77.01,2c1.13,0,2.04.94,2.04,2.1v46.34c0,1.16-.91,2.1-2.04,2.1H30.36c-1.13,0-2.04-.94-2.04-2.1V4.1c0-1.16.91-2.1,2.04-2.1h46.65Z"/>
      <path class="cls-4" d="M31.84,2.88h43.74c1.31,0,2.36,1.19,2.36,2.66v43.21c0,1.47-1.04,2.66-2.36,2.66H31.84c-1.34,0-2.38-1.2-2.38-2.66V5.54c0-1.47,1.04-2.66,2.38-2.66M74.68,24.03c0-.89-.72-1.61-1.61-1.61h-38.57c-.89,0-1.61.72-1.61,1.61v22.74c0,.89.72,1.61,1.61,1.61h38.57c.89,0,1.61-.72,1.61-1.61v-22.74Z"/>
      <rect class="cls-1" x="33.19" y="17.05" width=".83" height="2.92"/>
      <polygon class="cls-1" points="37.16 17.05 37.97 17.05 37.97 19.96 37.06 19.96 35.39 17.93 35.39 17.93 35.39 19.96 34.58 19.96 34.58 17.05 35.54 17.05 37.15 19.08 37.16 19.08 37.16 17.05"/>
      <polygon class="cls-1" points="39.37 17.6 38.23 17.6 38.23 17.05 41.34 17.05 41.34 17.6 40.21 17.6 40.21 19.97 39.37 19.97 39.37 17.6"/>
      <polygon class="cls-1" points="41.6 17.05 44.47 17.05 44.47 17.6 42.44 17.6 42.44 18.21 44.36 18.21 44.36 18.74 42.44 18.74 42.44 19.41 44.48 19.41 44.48 19.96 41.6 19.96 41.6 17.05"/>
      <path class="cls-1" d="M44.95,17.05h2.23c.85,0,.99.49.99.79,0,.36-.15.58-.5.7h0c.36.06.42.5.42.79,0,.14.01.49.16.63h-.91c-.08-.13-.08-.25-.08-.56,0-.41-.18-.51-.44-.51h-1.03v1.07h-.83v-2.92ZM45.78,18.34h1.1c.18,0,.4-.1.4-.37,0-.29-.24-.36-.44-.36h-1.06v.74Z"/>
      <polygon class="cls-1" points="51.21 17.05 52.01 17.05 52.01 19.96 51.11 19.96 49.44 17.93 49.43 17.93 49.43 19.96 48.62 19.96 48.62 17.05 49.59 17.05 51.2 19.08 51.21 19.08 51.21 17.05"/>
      <path class="cls-1" d="M54.8,19.36h-1.41l-.25.6h-.9l1.35-2.92h1.01l1.35,2.92h-.9l-.25-.6ZM54.1,17.68l-.48,1.16h.96l-.48-1.16Z"/>
      <polygon class="cls-1" points="56.64 17.6 55.5 17.6 55.5 17.05 58.61 17.05 58.61 17.6 57.47 17.6 57.47 19.97 56.64 19.97 56.64 17.6"/>
      <rect class="cls-1" x="58.87" y="17.05" width=".83" height="2.92"/>
      <path class="cls-1" d="M62.01,16.97c1.65,0,1.91.93,1.91,1.54s-.26,1.54-1.91,1.54-1.91-.93-1.91-1.54.26-1.54,1.91-1.54M62.01,19.49c.76,0,1.02-.53,1.02-.98s-.27-.99-1.02-.99-1.02.53-1.02.99.27.98,1.02.98"/>
      <polygon class="cls-1" points="66.9 17.05 67.71 17.05 67.71 19.96 66.8 19.96 65.13 17.93 65.12 17.93 65.12 19.96 64.32 19.96 64.32 17.05 65.28 17.05 66.89 19.08 66.9 19.08 66.9 17.05"/>
      <path class="cls-1" d="M70.5,19.36h-1.41l-.25.6h-.9l1.35-2.92h1.01l1.35,2.92h-.9l-.25-.6ZM69.8,17.68l-.48,1.16h.96l-.48-1.16Z"/>
      <polygon class="cls-1" points="71.88 17.05 72.71 17.05 72.71 19.38 74.58 19.38 74.58 19.96 71.88 19.96 71.88 17.05"/>
      <path class="cls-1" d="M32.42,9.85c.25-1.97,2.12-2.26,4.16-2.26,2.42,0,4.23.39,4.23,2.26v3.36c0,.56.06.82.27,1.2h-2.6c-.09-.2-.12-.43-.14-.61-.75.71-1.81.88-3.13.88-2.12,0-3.25-.69-3.25-2.07,0-1.51,1.01-2.05,2.87-2.17l2.59-.17c.67-.05.78-.2.78-.54,0-.47-.5-.71-1.64-.71-.96,0-1.42.27-1.54.83h-2.6ZM38.28,11.31c-.2.06-.52.12-.99.18l-1.75.21c-.53.06-.75.27-.75.67,0,.51.47.81,1.17.81,1.5,0,2.33-.56,2.33-1.47v-.41Z"/>
      <path class="cls-1" d="M42.31,7.76h2.53v.97h.03c.62-.61,1.41-1.14,2.67-1.14.92,0,1.77.25,2.35,1.14.7-.69,1.47-1.14,2.8-1.14s2.58.6,2.58,2.26v4.56h-2.6v-3.88c0-.64-.42-.98-1.12-.98-.96,0-1.46.46-1.46,1.14v3.72h-2.6v-3.88c0-.64-.42-.98-1.12-.98-.96,0-1.46.46-1.46,1.14v3.72h-2.6v-6.65Z"/>
      <path class="cls-1" d="M65.59,11.7c-.39,1.9-1.68,2.98-4.6,2.98s-4.66-1.14-4.66-3.59,1.8-3.59,4.66-3.59c2.48,0,4.24.75,4.48,2.86h-2.67c-.12-.72-.66-1.14-1.77-1.14-1.21,0-1.95.67-1.95,1.88s.71,1.88,1.96,1.88c.98,0,1.63-.42,1.8-1.26h2.75Z"/>
      <path class="cls-1" d="M66.71,9.85c.24-1.97,2.12-2.26,4.16-2.26,2.42,0,4.23.39,4.23,2.26v3.36c0,.56.06.82.27,1.2h-2.6c-.09-.2-.12-.43-.13-.61-.75.71-1.82.88-3.13.88-2.12,0-3.25-.69-3.25-2.07,0-1.51,1-2.05,2.87-2.17l2.59-.17c.67-.05.78-.2.78-.54,0-.47-.5-.71-1.64-.71-.96,0-1.42.27-1.54.83h-2.6ZM72.57,11.31c-.2.06-.52.12-.99.18l-1.75.21c-.53.06-.75.27-.75.67,0,.51.47.81,1.17.81,1.5,0,2.33-.56,2.33-1.47v-.41Z"/>
      <rect class="cls-7" x="72.21" y="22.13" width=".51" height="26.76"/>
      <rect class="cls-7" x="69.54" y="22.13" width=".51" height="26.76"/>
      <rect class="cls-7" x="66.88" y="22.13" width=".51" height="26.76"/>
      <rect class="cls-7" x="64.21" y="22.13" width=".51" height="26.76"/>
      <rect class="cls-7" x="61.55" y="22.13" width=".51" height="26.76"/>
      <rect class="cls-7" x="58.88" y="22.13" width=".51" height="26.76"/>
      <rect class="cls-7" x="56.22" y="22.13" width=".51" height="26.76"/>
      <rect class="cls-7" x="53.55" y="22.13" width=".51" height="26.76"/>
      <rect class="cls-7" x="50.89" y="22.13" width=".51" height="26.76"/>
      <rect class="cls-7" x="48.22" y="22.13" width=".51" height="26.76"/>
      <rect class="cls-7" x="45.56" y="22.13" width=".51" height="26.76"/>
      <rect class="cls-7" x="42.89" y="22.13" width=".51" height="26.76"/>
      <rect class="cls-7" x="40.23" y="22.13" width=".51" height="26.76"/>
      <rect class="cls-7" x="37.56" y="22.13" width=".51" height="26.76"/>
      <rect class="cls-7" x="34.9" y="22.13" width=".51" height="26.76"/>
      <path class="cls-4" d="M65.68,46.73c.91,0,1.66-.61,1.66-1.72v-13.75c-.02-2.64-3.19-5.88-8.15-5.88-6.98,0-9.1,7.7-9.1,7.7-.23.83.09.99.7.36,0,0,1.68-1.74,3.61-1.74s3.65,1.47,3.65,2.94v10.34c0,1.09.41,1.76,1.65,1.76h5.97Z"/>
      <path class="cls-4" d="M42.19,24.28c-1.12,0-1.94.77-1.94,1.63v13.85c.02,2.64,3.19,5.88,8.15,5.88,6.98,0,9.1-7.7,9.1-7.7.23-.83-.09-.99-.7-.36,0,0-1.68,1.74-3.61,1.74s-3.65-1.47-3.65-2.94v-10.47c0-.86-.92-1.63-1.83-1.63h-5.51Z"/>
      <g>
        <path class="cls-3" d="M35.42,58.48h2.13l1,2.89h.01l1-2.89h2.13v4.38h-1.37v-3.28h-.01l-1.15,3.28h-1.2l-1.15-3.28h-.01v3.28h-1.37v-4.38Z"/>
        <path class="cls-3" d="M43.01,58.48h4.39v.94h-2.93v.79h2.74v.91h-2.74v.79h2.93v.94h-4.39v-4.38Z"/>
        <path class="cls-3" d="M48.44,58.48h2.13l1,2.89h.01l1-2.89h2.13v4.38h-1.37v-3.28h-.01l-1.15,3.28h-1.2l-1.15-3.28h-.01v3.28h-1.37v-4.38Z"/>
        <path class="cls-3" d="M56.03,58.48h3.62c1.06,0,1.25.66,1.25,1.08s-.23.77-.54.88h0c.46.12.76.49.76,1.11,0,.52-.25,1.31-1.59,1.31h-3.5v-4.38ZM57.49,60.17h1.45c.31,0,.45-.17.45-.38s-.13-.37-.45-.37h-1.45v.74ZM59.06,61.92c.31,0,.52-.17.52-.45s-.21-.44-.52-.44h-1.57v.89h1.57Z"/>
        <path class="cls-3" d="M62.25,58.48h4.39v.94h-2.93v.79h2.74v.91h-2.74v.79h2.93v.94h-4.39v-4.38Z"/>
        <path class="cls-3" d="M67.68,58.48h3.51c1.07,0,1.47.49,1.47,1.22,0,.58-.31.9-.7,1h0c.28.1.49.33.53.8.07.86.09,1.14.28,1.36h-1.6c-.08-.19-.08-.45-.08-.65,0-.69-.23-.81-.6-.81h-1.34v1.46h-1.46v-4.38ZM69.14,60.42h1.4c.36,0,.55-.18.55-.48s-.19-.47-.55-.47h-1.4v.96Z"/>
      </g>
    </g>
  </g>
</svg>